<svg width="20" height="6" viewBox="0 0 20 6" fill="none" xmlns="http://www.w3.org/2000/svg">
<path d="M2.75 5.5C1.23 5.5 0 4.27 0 2.75C0 1.23 1.23 0 2.75 0C4.27 0 5.5 1.23 5.5 2.75C5.5 4.27 4.27 5.5 2.75 5.5ZM2.75 1.5C2.41848 1.5 2.10054 1.6317 1.86612 1.86612C1.6317 2.10054 1.5 2.41848 1.5 2.75C1.5 3.08152 1.6317 3.39946 1.86612 3.63388C2.10054 3.8683 2.41848 4 2.75 4C3.08152 4 3.39946 3.8683 3.63388 3.63388C3.8683 3.39946 4 3.08152 4 2.75C4 2.41848 3.8683 2.10054 3.63388 1.86612C3.39946 1.6317 3.08152 1.5 2.75 1.5ZM16.75 5.5C15.23 5.5 14 4.27 14 2.75C14 1.23 15.23 0 16.75 0C18.27 0 19.5 1.23 19.5 2.75C19.5 4.27 18.27 5.5 16.75 5.5ZM16.75 1.5C16.4185 1.5 16.1005 1.6317 15.8661 1.86612C15.6317 2.10054 15.5 2.41848 15.5 2.75C15.5 3.08152 15.6317 3.39946 15.8661 3.63388C16.1005 3.8683 16.4185 4 16.75 4C17.0815 4 17.3995 3.8683 17.6339 3.63388C17.8683 3.39946 18 3.08152 18 2.75C18 2.41848 17.8683 2.10054 17.6339 1.86612C17.3995 1.6317 17.0815 1.5 16.75 1.5ZM9.75 5.5C8.23 5.5 7 4.27 7 2.75C7 1.23 8.23 0 9.75 0C11.27 0 12.5 1.23 12.5 2.75C12.5 4.27 11.27 5.5 9.75 5.5ZM9.75 1.5C9.41848 1.5 9.10054 1.6317 8.86612 1.86612C8.6317 2.10054 8.5 2.41848 8.5 2.75C8.5 3.08152 8.6317 3.39946 8.86612 3.63388C9.10054 3.8683 9.41848 4 9.75 4C10.0815 4 10.3995 3.8683 10.6339 3.63388C10.8683 3.39946 11 3.08152 11 2.75C11 2.41848 10.8683 2.10054 10.6339 1.86612C10.3995 1.6317 10.0815 1.5 9.75 1.5Z" fill="black"/>
</svg>
